<svg width="33" height="32" viewBox="0 0 33 32" fill="none" xmlns="http://www.w3.org/2000/svg">
<path d="M16.5385 0C14.4373 0 12.3567 0.424127 10.4155 1.24817C8.47431 2.0722 6.71048 3.28001 5.22474 4.80264C2.22416 7.87772 0.538452 12.0484 0.538452 16.3972C0.538452 23.6448 5.13045 29.7938 11.4825 31.9746C12.2825 32.1058 12.5385 31.5975 12.5385 31.1547C12.5385 30.7776 12.5385 29.7446 12.5385 28.3836C8.10645 29.3674 7.16245 26.1864 7.16245 26.1864C6.42645 24.2843 5.38645 23.776 5.38645 23.776C3.93045 22.7594 5.49845 22.7922 5.49845 22.7922C7.09845 22.9069 7.94645 24.4811 7.94645 24.4811C9.33845 26.9734 11.6905 26.2356 12.6025 25.842C12.7465 24.7762 13.1625 24.0547 13.6105 23.6448C10.0585 23.2349 6.33045 21.8247 6.33045 15.5774C6.33045 13.7573 6.93845 12.2979 7.97845 11.1337C7.81845 10.7238 7.25845 9.01848 8.13845 6.80485C8.13845 6.80485 9.48245 6.36213 12.5385 8.47737C13.8025 8.11663 15.1785 7.93626 16.5385 7.93626C17.8985 7.93626 19.2745 8.11663 20.5385 8.47737C23.5945 6.36213 24.9385 6.80485 24.9385 6.80485C25.8185 9.01848 25.2585 10.7238 25.0985 11.1337C26.1385 12.2979 26.7465 13.7573 26.7465 15.5774C26.7465 21.8411 23.0025 23.2185 19.4345 23.6284C20.0105 24.1367 20.5385 25.137 20.5385 26.6619C20.5385 28.8591 20.5385 30.63 20.5385 31.1547C20.5385 31.5975 20.7945 32.1222 21.6105 31.9746C27.9625 29.7774 32.5385 23.6448 32.5385 16.3972C32.5385 14.2439 32.1246 12.1117 31.3205 10.1223C30.5165 8.13288 29.3379 6.32526 27.8522 4.80264C26.3664 3.28001 24.6026 2.0722 22.6614 1.24817C20.7202 0.424127 18.6396 0 16.5385 0Z" fill="#871034"/>
</svg>
