<svg width="30" height="30" viewBox="0 0 30 30" fill="none" xmlns="http://www.w3.org/2000/svg">
<path d="M26.2564 0.461533C27.1269 0.461533 27.9617 0.807319 28.5772 1.42282C29.1927 2.03833 29.5385 2.87313 29.5385 3.74358V26.7179C29.5385 27.5884 29.1927 28.4232 28.5772 29.0387C27.9617 29.6542 27.1269 30 26.2564 30H3.28205C2.4116 30 1.57679 29.6542 0.96129 29.0387C0.345786 28.4232 0 27.5884 0 26.7179V3.74358C0 2.87313 0.345786 2.03833 0.96129 1.42282C1.57679 0.807319 2.4116 0.461533 3.28205 0.461533H26.2564ZM25.4359 25.8974V17.2C25.4359 15.7812 24.8723 14.4204 23.869 13.4172C22.8657 12.4139 21.505 11.8503 20.0862 11.8503C18.6913 11.8503 17.0667 12.7036 16.279 13.9836V12.162H11.7005V25.8974H16.279V17.8072C16.279 16.5436 17.2964 15.5097 18.56 15.5097C19.1693 15.5097 19.7537 15.7518 20.1845 16.1826C20.6154 16.6135 20.8574 17.1979 20.8574 17.8072V25.8974H25.4359ZM6.36718 9.58564C7.09836 9.58564 7.7996 9.29518 8.31662 8.77815C8.83364 8.26113 9.1241 7.55989 9.1241 6.82871C9.1241 5.30256 7.89333 4.05538 6.36718 4.05538C5.63165 4.05538 4.92624 4.34757 4.40614 4.86767C3.88604 5.38777 3.59385 6.09318 3.59385 6.82871C3.59385 8.35487 4.84103 9.58564 6.36718 9.58564ZM8.64821 25.8974V12.162H4.10256V25.8974H8.64821Z" fill="#871034"/>
</svg>
