<svg width="34" height="30" viewBox="0 0 34 30" fill="none" xmlns="http://www.w3.org/2000/svg">
<path d="M0.538452 30V26.7179H30.0769V30H0.538452ZM30.0769 8.66666V3.74358H26.7949V8.66666H30.0769ZM30.0769 0.461533C30.9474 0.461533 31.7822 0.807319 32.3977 1.42282C33.0132 2.03833 33.359 2.87313 33.359 3.74358V8.66666C33.359 9.53712 33.0132 10.3719 32.3977 10.9874C31.7822 11.6029 30.9474 11.9487 30.0769 11.9487H26.7949V16.8718C26.7949 18.6127 26.1033 20.2823 24.8723 21.5133C23.6413 22.7443 21.9717 23.4359 20.2308 23.4359H10.3846C8.6437 23.4359 6.97409 22.7443 5.74308 21.5133C4.51208 20.2823 3.8205 18.6127 3.8205 16.8718V0.461533H30.0769ZM23.5128 3.74358H7.10256V16.8718C7.10256 17.7422 7.44834 18.577 8.06385 19.1925C8.67935 19.8081 9.51415 20.1538 10.3846 20.1538H20.2308C21.1012 20.1538 21.936 19.8081 22.5515 19.1925C23.167 18.577 23.5128 17.7422 23.5128 16.8718V3.74358Z" fill="#871034"/>
</svg>
