<svg width="7" height="7" viewBox="0 0 7 7" fill="none" xmlns="http://www.w3.org/2000/svg">
<path d="M0.413905 7C0.304743 7 0.195582 6.96373 0.122807 6.87306C-0.0409357 6.70984 -0.0409357 6.45596 0.122807 6.29275L5.63548 0.797928L1.23262 0.797928C1.01429 0.797928 0.832359 0.61658 0.832359 0.398964C0.832359 0.181347 1.01429 0 1.23262 0L6.59974 0C6.81806 0 7 0.181347 7 0.398964V5.78497C7 6.00259 6.81806 6.18394 6.59974 6.18394C6.38142 6.18394 6.19948 6.00259 6.19948 5.78497V1.41451L0.705003 6.89119C0.632229 6.96373 0.523067 7 0.413905 7Z" fill="#C83662"/>
</svg>
