<svg width="9" height="10" viewBox="0 0 9 10" fill="none" xmlns="http://www.w3.org/2000/svg">
<path d="M4.52496 0.284373C4.59995 0.209374 4.69987 0.159293 4.81217 0.171591C5.0368 0.171226 5.21123 0.345657 5.21087 0.570291L5.1986 8.13295L8.22357 5.10798C8.37357 4.95798 8.62316 4.95758 8.77268 5.10709C8.92219 5.2566 8.92178 5.50619 8.77179 5.65619L5.08432 9.34365C4.93433 9.49365 4.68473 9.49406 4.53522 9.34454L0.834781 5.64411C0.685268 5.49459 0.685673 5.245 0.835672 5.095C0.98567 4.945 1.23526 4.9446 1.38478 5.09411L4.38749 8.09682L4.39971 0.559127C4.39988 0.45929 4.44996 0.359372 4.52496 0.284373Z" fill="#B4B6DD"/>
</svg>
