<svg width="10" height="10" viewBox="0 0 10 10" fill="none" xmlns="http://www.w3.org/2000/svg">
<path d="M0.292665 5.24242C0.215476 5.16523 0.163933 5.0624 0.17659 4.94682C0.176215 4.71563 0.355739 4.53611 0.586932 4.53648L8.3704 4.5491L5.25711 1.43581C5.10273 1.28143 5.10232 1.02455 5.25619 0.870676C5.41007 0.716798 5.66695 0.717215 5.82133 0.871593L9.61646 4.66672C9.77084 4.8211 9.77125 5.07798 9.61737 5.23186L5.80889 9.04034C5.65501 9.19422 5.39813 9.1938 5.24375 9.03942C5.08938 8.88505 5.08896 8.62817 5.24284 8.47429L8.33322 5.3839L0.575442 5.37132C0.47269 5.37115 0.369854 5.31961 0.292665 5.24242Z" fill="white"/>
</svg>
