<svg width="24" height="21" viewBox="0 0 24 21" fill="none" xmlns="http://www.w3.org/2000/svg">
<path fill-rule="evenodd" clip-rule="evenodd" d="M4.98488 0C3.61547 0 2.60217 1.31653 2.64755 2.74428C2.69109 4.116 2.63452 5.89252 2.22736 7.34126C1.81875 8.79413 1.12819 9.71477 0 9.83291V11.1671C1.12819 11.2855 1.81875 12.2057 2.22731 13.6587C2.63452 15.1075 2.69105 16.884 2.6475 18.2557C2.60212 19.6833 3.61542 21 4.98507 21H19.0169C20.3864 21 21.3995 19.6835 21.3541 18.2557C21.3105 16.884 21.3671 15.1075 21.7743 13.6587C22.1829 12.2057 22.8717 11.2851 24 11.1671V9.83291C22.8718 9.71452 22.183 8.7943 21.7743 7.34126C21.367 5.89273 21.3105 4.116 21.3541 2.74428C21.3995 1.31674 20.3864 0 19.0169 0H4.98488ZM16.2712 12.9269C16.2712 14.8928 14.9362 16.0851 12.7206 16.0851H8.94913C8.84127 16.0851 8.73779 16.0381 8.6615 15.9542C8.58522 15.8705 8.54237 15.7568 8.54237 15.6383V5.36172C8.54237 5.24324 8.58522 5.12959 8.6615 5.0458C8.73779 4.96201 8.84127 4.91492 8.94913 4.91492H12.6991C14.5465 4.91492 15.7589 6.01406 15.7589 7.70162C15.7589 8.88611 14.9433 9.94652 13.9043 10.1323V10.1941C15.3188 10.3645 16.2712 11.4406 16.2712 12.9269ZM12.3094 6.33129H10.1589V9.66769H11.9701C13.3703 9.66769 14.1423 9.0484 14.1423 7.94149C14.1422 6.90409 13.4785 6.33129 12.3094 6.33129ZM10.1589 10.9915V14.6683H12.3885C13.8463 14.6683 14.6185 14.0258 14.6185 12.8183C14.6185 11.6108 13.8247 10.9913 12.2947 10.9913L10.1589 10.9915Z" fill="#A31C45"/>
</svg>
