<svg width="18" height="20" viewBox="0 0 18 20" fill="none" xmlns="http://www.w3.org/2000/svg">
<path d="M18 5.03236C17.9005 4.85437 17.7677 4.69256 17.6184 4.61165L9.63871 0.113269C9.50599 0.0323624 9.3235 0 9.12442 0C8.92535 0 8.74286 0.0485437 8.61014 0.113269L0.564055 4.61165C0.282028 4.77346 0 5.17799 0 5.48544V14.4984C0 14.6764 0.116129 14.8705 0.232258 15.0485L0.248848 15.0647C0.331797 15.1942 0.464516 15.3074 0.580645 15.3722L8.59355 19.8867C8.72627 19.9676 8.92535 20 9.12442 20C9.3235 20 9.50599 19.9515 9.63871 19.8867L17.5189 15.3722C17.8009 15.2104 17.9171 14.8058 17.9171 14.4984V5.48544C17.9171 5.35599 17.9834 5.19417 17.9171 5.06472L18 5.03236ZM17.3032 5.37217C17.3032 5.42071 17.2535 5.45307 17.2535 5.48544V14.4984C17.2535 14.6278 17.2203 14.7735 17.1871 14.822L9.29032 19.3204C9.27373 19.3366 9.20737 19.3528 9.10783 19.3528C9.0083 19.3528 8.94194 19.3366 8.92535 19.3204L0.929032 14.822C0.929032 14.822 0.912442 14.8058 0.895853 14.8058L0.796313 14.7087C0.729954 14.5955 0.829493 14.5307 0.663594 14.5146V5.50162C0.829493 5.42071 0.812903 5.22654 0.895853 5.19417L8.90876 0.679612C8.92535 0.679612 9.0083 0.647249 9.10783 0.647249C9.20737 0.647249 9.27373 0.66343 9.29032 0.679612L17.2535 5.16181L17.3198 5.30744C17.3364 5.32362 17.3032 5.35599 17.3032 5.37217ZM9.12442 6.0356C10.6341 6.0356 11.9613 6.84466 12.6581 8.05825L14.8147 6.84466C13.6866 4.91909 11.5631 3.60841 9.12442 3.60841C5.50783 3.60841 2.57143 6.47249 2.57143 10C2.57143 13.5275 5.50783 16.3916 9.12442 16.3916C11.5465 16.3916 13.67 15.0971 14.7982 13.1877L12.6581 11.9579C11.9613 13.1553 10.6341 13.9644 9.12442 13.9644C6.88479 13.9644 5.05991 12.1845 5.05991 10C5.05991 7.81553 6.88479 6.0356 9.12442 6.0356Z" fill="#A21C45"/>
</svg>
