<svg width="21" height="24" viewBox="0 0 21 24" fill="none" xmlns="http://www.w3.org/2000/svg">
<path d="M20.9152 6.07276L20.9735 6.03395C20.8568 5.82053 20.6817 5.62652 20.5066 5.52951L11.1094 0.135812C10.9537 0.0388036 10.7397 0 10.5062 0C10.2727 0 10.0587 0.0582053 9.90308 0.135812L0.564223 5.54891C0.233471 5.74293 0 6.22797 0 6.5966V17.4034C0 17.6168 0.0389119 17.8496 0.175104 18.0631L0.136192 18.0825C0.233472 18.2377 0.369663 18.3735 0.505855 18.4511L9.88363 23.8642C10.0393 23.9612 10.2533 24 10.4868 24C10.7202 24 10.9343 23.9418 11.0899 23.8642L20.4288 18.4511C20.7595 18.2571 20.993 17.772 20.993 17.4034V6.5772C21.0124 6.42199 20.993 6.24737 20.9152 6.07276ZM10.5062 19.654C6.26482 19.654 2.82111 16.2199 2.82111 11.9903C2.82111 7.76071 6.26482 4.3266 10.5062 4.3266C13.3662 4.3266 15.8566 5.89814 17.1796 8.20695L14.6503 9.66209C13.8332 8.20695 12.2767 7.23686 10.5062 7.23686C7.87966 7.23686 5.73951 9.37106 5.73951 11.9903C5.73951 14.6095 7.87966 16.7437 10.5062 16.7437C12.2767 16.7437 13.8332 15.7736 14.6503 14.3379L17.1602 15.8124C15.8372 18.1019 13.3468 19.654 10.5062 19.654ZM20.4288 11.6023H19.8062L19.6311 12.3783H20.4288V13.3484H19.456L19.2225 14.5125H18.2691L18.5026 13.3484H17.7633L17.5298 14.5125H16.5959L16.8294 13.3484H16.343V12.3783H17.024L17.1991 11.6023H16.343V10.6322H17.3742L17.6076 9.46807H18.561L18.3275 10.6322H19.0668L19.3003 9.46807H20.2342L20.0007 10.6322H20.4288V11.6023ZM17.9579 12.3783H18.6972L18.8723 11.6023H18.133L17.9579 12.3783Z" fill="#A31C45"/>
</svg>
