<svg width="20" height="22" viewBox="0 0 20 22" fill="none" xmlns="http://www.w3.org/2000/svg">
<path d="M0 0L1.82024 19.7941L9.98787 22L18.1783 19.786L20 0H0ZM16.2185 4.53491L15.6126 11.129L15.6144 11.1646L15.6119 11.2465V11.2458L15.1814 15.8564L15.134 16.266L10 17.6415L9.99602 17.645L4.87093 16.2618L4.5239 12.4499H7.03711L7.21542 14.3882L10.0007 15.1194L10 15.1208V15.1205L12.7956 14.3789L13.0911 11.2224H7.24692L7.19678 10.6888L7.08255 9.43877L7.02263 8.76753H13.3132L13.542 6.31262H3.9609L3.91075 5.77938L3.79671 4.52895L3.7366 3.85771H16.2784L16.2185 4.53491Z" fill="#A31C45"/>
</svg>
