<svg width="23" height="23" viewBox="0 0 23 23" fill="none" xmlns="http://www.w3.org/2000/svg">
<path d="M22.761 17.6884C21.9416 17.8969 21.4349 17.6974 20.9803 17.0146C19.9597 15.4855 18.833 14.0264 17.7459 12.5404C17.6058 12.3481 17.4602 12.1594 17.2787 11.9205C15.9922 13.6562 14.7074 15.3094 13.5017 17.029C13.0705 17.6435 12.6176 17.9112 11.8126 17.6938L16.6498 11.2017L12.1469 5.33851C12.9213 5.18757 13.4568 5.26484 13.9312 5.95843C14.9787 7.48937 16.1341 8.94663 17.2859 10.4884C18.4449 8.95202 19.5859 7.49296 20.664 5.9764C21.0971 5.36187 21.5625 5.12828 22.3405 5.35468C21.7512 6.13632 21.1744 6.90538 20.594 7.66906C19.8105 8.69867 19.0415 9.74085 18.2293 10.7489C17.94 11.1083 17.9867 11.3419 18.2455 11.6815C19.7476 13.6562 21.2319 15.6508 22.761 17.6884ZM0.238972 11.0939C0.368347 10.4452 0.454597 9.78398 0.634285 9.14788C1.71241 5.29718 6.13272 3.69617 9.16944 6.08242C10.9483 7.48218 11.3904 9.45515 11.3023 11.6797H1.27577C1.12483 15.6705 3.99803 18.0801 7.66007 16.8511C8.94483 16.4198 9.70131 15.4136 10.0805 14.1558C10.2727 13.5251 10.5908 13.4262 11.1837 13.6059C10.8801 15.18 10.1919 16.4953 8.75436 17.3183C6.59811 18.5509 3.52007 18.152 1.90108 16.4396C0.945144 15.4334 0.53905 14.1809 0.359363 12.8279C0.33241 12.6123 0.276707 12.4002 0.233582 12.1864C0.237175 11.8222 0.238972 11.4581 0.238972 11.0939ZM1.29374 10.8262H10.3554C10.2961 7.94038 8.49921 5.89015 6.04288 5.87218C3.34757 5.85062 1.41053 7.85234 1.29374 10.8262Z" fill="#A31C45"/>
</svg>
