<svg width="15" height="23" viewBox="0 0 15 23" fill="none" xmlns="http://www.w3.org/2000/svg">
<path d="M11.25 7.60484C13.3413 7.60484 15 5.89839 15 3.74677C15 1.59516 13.2692 0 11.25 0H3.75C1.65865 0 0 1.70645 0 3.85806C0 6.00968 1.65865 7.71613 3.75 7.71613C1.65865 7.71613 0 9.42258 0 11.5742C0 13.7258 1.65865 15.4323 3.75 15.4323C1.65865 15.4323 0 17.1387 0 19.2903C0 21.4419 1.69471 23 3.75 23C5.80529 23 7.5 21.2935 7.5 19.1419V7.71613H11.25V7.60484ZM11.25 7.60484C9.15866 7.60484 7.5 9.31129 7.5 11.4629C7.5 13.6145 9.15866 15.321 11.25 15.321C13.3413 15.321 15 13.6145 15 11.4629C14.8918 9.31129 13.2692 7.60484 11.25 7.60484Z" fill="#A31C45"/>
</svg>
