<svg width="22" height="22" viewBox="0 0 22 22" fill="none" xmlns="http://www.w3.org/2000/svg">
<path d="M21.8559 10.6452L11.3195 0.106452C11.1771 -0.0354839 10.8212 -0.0354839 10.6076 0.106452L7.68874 3.01613L10.394 5.7129C10.6076 5.60645 10.8568 5.57097 11.106 5.57097C12.1026 5.57097 12.8502 6.3871 12.8502 7.30968C12.8502 7.55806 12.8146 7.80645 12.7078 8.01935L14.8791 10.1839C15.0927 10.0774 15.3419 10.0419 15.591 10.0419C16.5877 10.0419 17.3352 10.8581 17.3352 11.7806C17.3352 12.7742 16.5165 13.5194 15.591 13.5194C14.5944 13.5194 13.8468 12.7032 13.8468 11.7806C13.8468 11.5323 13.8824 11.2839 13.9892 11.071L11.8179 8.90645H11.7823V12.9871C12.423 13.271 12.8858 13.8742 12.8858 14.6194C12.8858 15.6129 12.067 16.3581 11.1415 16.3581C10.1449 16.3581 9.39735 15.5419 9.39735 14.6194C9.39735 13.8742 9.86009 13.2355 10.5008 12.9871V9.0129C9.86009 8.72903 9.39735 8.12581 9.39735 7.38064C9.39735 7.13226 9.43294 6.88387 9.53973 6.67097L6.83444 3.97419L0.106788 10.6452C-0.035596 10.7871 -0.035596 11.1419 0.106788 11.3548L10.6788 21.8935C10.8212 22.0355 11.1771 22.0355 11.3907 21.8935L21.9271 11.3548C22.0339 11.1419 22.0339 10.8581 21.8559 10.6452Z" fill="#A31C45"/>
</svg>
