<svg width="21" height="21" viewBox="0 0 21 21" fill="none" xmlns="http://www.w3.org/2000/svg">
<path d="M2 0C0.89543 0 0 0.895431 0 2V19C0 20.1046 0.895431 21 2 21H19C20.1046 21 21 20.1046 21 19V2C21 0.89543 20.1046 0 19 0H2ZM11.4484 16.3597C11.4484 18.4258 10.229 19.3742 8.46774 19.3742C7.29997 19.3742 6.49371 18.9175 5.9634 18.2609C5.66081 17.8863 5.82787 17.3533 6.23626 17.0981C6.72066 16.7954 7.30051 17.0707 7.78418 17.3746C7.95649 17.4829 8.16646 17.5452 8.43387 17.5452C9.11129 17.5452 9.48387 17.3081 9.48387 16.2919V10.6355C9.48387 10.093 9.92364 9.65323 10.4661 9.65323C11.0086 9.65323 11.4484 10.093 11.4484 10.6355V16.3597ZM16.1226 19.3742C14.7502 19.3742 13.7401 18.8593 13.0638 18.1443C12.6991 17.7589 12.8662 17.1613 13.3246 16.8939C13.7723 16.6327 14.3262 16.7955 14.7229 17.1291C15.0766 17.4266 15.5143 17.6129 16.0887 17.6129C16.9016 17.6129 17.4097 17.2403 17.4097 16.5968C17.4097 15.9194 16.9016 15.6823 15.9871 15.2758L15.5129 15.0726C14.0903 14.4968 13.1419 13.6839 13.1419 12.0581C13.1419 10.5677 14.2258 9.48387 16.021 9.48387C16.9806 9.48387 17.7218 9.74207 18.3054 10.3801C18.6309 10.736 18.4888 11.2822 18.0876 11.5497C17.646 11.8441 17.0885 11.631 16.6187 11.384C16.4412 11.2907 16.2369 11.2452 15.9871 11.2452C15.4113 11.2452 15.0387 11.6177 15.0387 12.0919C15.0387 12.6677 15.4113 12.9048 16.2242 13.2774L16.6984 13.4806C18.3581 14.1919 19.3403 14.9032 19.3403 16.5968C19.3742 18.3919 17.9855 19.3742 16.1226 19.3742Z" fill="#A31C45"/>
</svg>
