<svg width="21" height="21" viewBox="0 0 21 21" fill="none" xmlns="http://www.w3.org/2000/svg">
<g clip-path="url(#clip0_6_291)">
<mask id="mask0_6_291" style="mask-type:luminance" maskUnits="userSpaceOnUse" x="0" y="0" width="21" height="21">
<path d="M21 0H0V21H21V0Z" fill="white"/>
</mask>
<g mask="url(#mask0_6_291)">
<path d="M9.81232 0.00565117C9.76717 0.00975615 9.62345 0.0241235 9.49413 0.0343859C6.51144 0.303261 3.71759 1.91241 1.94809 4.38565C0.962758 5.76083 0.332551 7.3207 0.0944281 8.97294C0.0102639 9.54972 0 9.72005 0 10.5021C0 11.2841 0.0102639 11.4544 0.0944281 12.0312C0.665103 15.974 3.47127 19.2867 7.27712 20.5141C7.95864 20.7337 8.67713 20.8835 9.49413 20.9738C9.81232 21.0087 11.1877 21.0087 11.5059 20.9738C12.9161 20.8179 14.1109 20.4689 15.2891 19.8675C15.4698 19.7752 15.5047 19.7506 15.4801 19.73C15.4636 19.7177 14.6938 18.6853 13.7701 17.4374L12.0909 15.1694L9.98681 12.0558C8.82902 10.344 7.87654 8.94423 7.86834 8.94423C7.8601 8.94216 7.8519 10.3255 7.8478 12.0147C7.84163 14.9724 7.83959 15.0914 7.80265 15.1612C7.74926 15.2618 7.70821 15.3028 7.62198 15.348C7.55629 15.3808 7.49884 15.387 7.18886 15.387H6.83373L6.73929 15.3274C6.6777 15.2885 6.63256 15.2371 6.60174 15.1776L6.55866 15.0853L6.56276 10.97L6.56893 6.85273L6.63255 6.7727C6.6654 6.72958 6.73519 6.67416 6.78444 6.64748C6.86861 6.60644 6.90145 6.60233 7.25658 6.60233C7.67537 6.60233 7.74516 6.61874 7.85397 6.73778C7.88475 6.77063 9.02406 8.48653 10.3871 10.5534C11.7502 12.6202 13.6141 15.4424 14.5296 16.8278L16.1924 19.3462L16.2765 19.2908C17.0217 18.8064 17.81 18.1168 18.434 17.3984C19.7622 15.8734 20.6182 14.0139 20.9056 12.0312C20.9897 11.4544 21 11.2841 21 10.5021C21 9.72005 20.9897 9.54972 20.9056 8.97294C20.3349 5.03012 17.5287 1.71742 13.7229 0.490038C13.0516 0.272474 12.3372 0.122643 11.5366 0.0323335C11.3396 0.0118086 9.98271 -0.0107687 9.81232 0.00565117ZM14.1109 6.35604C14.2094 6.4053 14.2894 6.4997 14.3182 6.59823C14.3346 6.65159 14.3387 7.79277 14.3346 10.3645L14.3284 14.0549L13.6777 13.0574L13.0249 12.0599V9.37729C13.0249 7.64295 13.0331 6.66803 13.0455 6.62081C13.0783 6.50587 13.1501 6.41557 13.2487 6.36218C13.3328 6.3191 13.3636 6.315 13.6859 6.315C13.9897 6.315 14.0431 6.3191 14.1109 6.35604Z" fill="#A31C45"/>
</g>
</g>
<defs>
<clipPath id="clip0_6_291">
<rect width="21" height="21" fill="white"/>
</clipPath>
</defs>
</svg>
