<svg width="20" height="23" viewBox="0 0 20 23" fill="none" xmlns="http://www.w3.org/2000/svg">
<path d="M10 0C9.7 0 9.38889 0.0793103 9.13333 0.226601L0.866667 5.09852C0.333333 5.41576 0 6.00493 0 6.63941V16.3606C0 16.9951 0.333333 17.5842 0.866667 17.9015L3.03333 19.1704C4.08889 19.6916 4.44444 19.703 4.93333 19.703C6.48889 19.703 7.38889 18.7399 7.38889 17.0631V7.4665C7.38889 7.33054 7.27778 7.21724 7.14444 7.21724H6.11111C5.96667 7.21724 5.85556 7.33054 5.85556 7.4665V17.0631C5.85556 17.8108 5.1 18.5473 3.88889 17.9241L1.61111 16.5985C1.53333 16.5419 1.48889 16.4512 1.48889 16.3606V6.63941C1.48889 6.53744 1.53333 6.4468 1.61111 6.40148L9.87778 1.54089C9.94445 1.49557 10.0556 1.49557 10.1222 1.54089L18.3889 6.40148C18.4667 6.4468 18.5111 6.53744 18.5111 6.63941V16.3606C18.5111 16.4512 18.4667 16.5419 18.3889 16.5985L10.1222 21.4591C10.0556 21.5044 9.94444 21.5044 9.86667 21.4591L7.77778 20.1675C7.68889 20.1335 7.6 20.1222 7.54444 20.1562C6.95556 20.4961 6.84444 20.564 6.3 20.734C6.16667 20.7793 5.95556 20.8586 6.37778 21.0966L9.13333 22.7621C9.4 22.9207 9.68889 23 10 23C10.3111 23 10.6 22.9207 10.8667 22.7621L19.1333 17.9015C19.6667 17.5842 20 16.9951 20 16.3606V6.63941C20 6.00493 19.6667 5.41576 19.1333 5.09852L10.8667 0.226601C10.6111 0.0793103 10.3111 0 10 0ZM12.2222 6.96798C9.86667 6.96798 8.45556 7.97636 8.45556 9.67586C8.45556 11.5 9.85556 12.0325 12.1222 12.2591C14.8222 12.531 15.0333 12.9389 15.0333 13.4828C15.0333 14.4232 14.2889 14.8197 12.5556 14.8197C10.3556 14.8197 9.88889 14.2645 9.72222 13.1542C9.7 13.0409 9.6 12.9502 9.47778 12.9502H8.41111C8.27778 12.9502 8.17778 13.0522 8.17778 13.1995C8.17778 14.6044 8.93333 16.3039 12.5556 16.3039C15.1667 16.3039 16.6667 15.2502 16.6667 13.4148C16.6667 11.5906 15.4667 11.1148 12.9222 10.7635C10.3556 10.4236 10.1 10.2424 10.1 9.63054C10.1 9.12069 10.3222 8.44089 12.2222 8.44089C13.8889 8.44089 14.5444 8.81478 14.8 9.98177C14.8222 10.0951 14.9222 10.1744 15.0333 10.1744H16.1111C16.1667 10.1744 16.2333 10.1517 16.2778 10.0951C16.3222 10.0498 16.3556 9.98177 16.3333 9.91379C16.1778 7.89705 14.8667 6.96798 12.2222 6.96798Z" fill="#A31C45"/>
</svg>
