<svg width="22" height="22" viewBox="0 0 22 22" fill="none" xmlns="http://www.w3.org/2000/svg">
<path d="M18.854 5.6147C19.6884 5.6147 20.4886 5.94384 21.0786 6.52973C21.6685 7.11562 22 7.91026 22 8.73883V12.8679C22 13.6965 21.6685 14.4911 21.0786 15.077C20.4886 15.6629 19.6884 15.9921 18.854 15.9921H11C11 16.4181 11.352 17.0407 11.781 17.0407H16.5V18.8759C16.5 19.7044 16.1685 20.4991 15.5786 21.085C14.9886 21.6709 14.1884 22 13.354 22H8.646C7.81163 22 7.01143 21.6709 6.42144 21.085C5.83145 20.4991 5.5 19.7044 5.5 18.8759V14.7795C5.5 13.0536 6.908 11.6663 8.646 11.6663H14.421C16.159 11.6663 17.556 10.2681 17.556 8.5422V5.6147H18.854ZM14.146 18.4935C13.706 18.4935 13.354 18.8213 13.354 19.4657C13.354 20.1102 13.706 20.2413 14.146 20.2413C14.2486 20.2413 14.3501 20.2213 14.4449 20.1823C14.5396 20.1433 14.6257 20.0862 14.6983 20.0142C14.7708 19.9421 14.8283 19.8566 14.8675 19.7625C14.9068 19.6684 14.927 19.5676 14.927 19.4657C14.927 18.8213 14.575 18.4935 14.146 18.4935Z" fill="#B4325C"/>
<path d="M3.146 16.3853C1.408 16.3853 0 14.9871 0 13.2612V9.13207C0 7.40616 1.408 6.00794 3.146 6.00794H11C11 5.58193 10.648 4.95928 10.219 4.95928H5.5V3.12413C5.5 1.39821 6.908 0 8.646 0H13.354C15.092 0 16.5 1.39821 16.5 3.12413V7.22046C16.5 8.94637 15.092 10.3337 13.354 10.3337H7.579C5.841 10.3337 4.444 11.7319 4.444 13.4578V16.3853H3.146ZM7.854 3.50645C8.294 3.50645 8.646 3.17875 8.646 2.53426C8.646 1.88977 8.294 1.75869 7.854 1.75869C7.425 1.75869 7.073 1.88977 7.073 2.53426C7.073 3.17875 7.425 3.50645 7.854 3.50645Z" fill="#710525"/>
</svg>
