<svg width="23" height="20" viewBox="0 0 23 20" fill="none" xmlns="http://www.w3.org/2000/svg">
<path d="M18.771 6.54876C18.5113 6.51157 18.2887 6.4 18.029 6.32562C18.0661 6.17687 18.0661 6.02811 18.1403 5.80498C18.6597 3.12736 18.2887 1.0076 17.1016 0.263822C15.9145 -0.405581 13.9855 0.301011 12.0565 1.9745C11.9081 2.12326 11.6484 2.27202 11.5 2.49515C11.3887 2.38358 11.2403 2.27202 11.129 2.12326C9.08871 0.301011 7.08548 -0.44277 5.82419 0.263822C4.6371 0.933225 4.26613 2.97861 4.78548 5.47028C4.82258 5.7306 4.89677 5.99092 4.93387 6.21406C4.67419 6.25125 4.37742 6.36281 4.11774 6.47438C1.70645 7.32973 0 8.70572 0 10.0073C0 11.4205 1.81774 12.8337 4.30323 13.6519C4.52581 13.6891 4.71129 13.8006 4.93387 13.8006C4.89677 14.0609 4.78548 14.3213 4.78548 14.6188C4.30323 17.0733 4.67419 19.0443 5.86129 19.7137C7.04839 20.4575 9.12581 19.7137 11.0548 17.9286C11.2032 17.7799 11.3516 17.6683 11.5371 17.5195C11.6855 17.6683 11.9452 17.8914 12.1677 18.0402C14.0226 19.7137 15.9516 20.3831 17.1758 19.7137C18.3629 18.9699 18.771 16.8873 18.2516 14.2841C18.2145 14.1353 18.2145 13.875 18.1032 13.6519C18.2516 13.6147 18.3629 13.6147 18.5113 13.5031C21.1081 12.7221 23 11.309 23 9.89577C22.9629 8.74291 21.1823 7.40411 18.771 6.54876ZM12.6871 2.75547C14.3565 1.30512 15.9145 0.784469 16.6565 1.15636C17.3984 1.56544 17.6952 3.3505 17.2129 5.69341C17.1758 5.84217 17.1758 5.95373 17.1016 6.17687C16.1 5.95373 15.1355 5.76779 14.0968 5.69341C13.5403 4.87525 12.9097 4.0199 12.2419 3.3505C12.3903 3.05299 12.5387 2.90423 12.6871 2.75547ZM7.53064 12.3874C7.75323 12.7965 8.0129 13.1684 8.27258 13.5403C7.53064 13.5031 6.8629 13.3915 6.19516 13.2428C6.34355 12.6106 6.60323 11.9412 6.9371 11.2718C7.08548 11.6065 7.34516 12.0527 7.53064 12.3874ZM6.19516 7.03222C6.82581 6.88346 7.49355 6.77189 8.23548 6.66032C7.97581 7.03222 7.75323 7.40411 7.56774 7.81319C7.38226 8.22227 7.15968 8.55697 6.9371 9.00324C6.60323 8.29664 6.41774 7.66443 6.19516 7.03222ZM7.38226 10.1189C7.64194 9.48669 8.0129 8.92886 8.38387 8.29664C8.75484 7.66443 9.12581 7.10659 9.45968 6.51157C10.1274 6.47438 10.7952 6.47438 11.5 6.47438C12.1677 6.47438 12.9097 6.51157 13.5403 6.51157C13.9484 7.0694 14.2823 7.66443 14.6161 8.22227C14.9871 8.7801 15.2839 9.41231 15.6177 10.0445C15.3581 10.6767 14.9871 11.2346 14.6161 11.8668C14.2452 12.499 13.8742 13.0568 13.5403 13.6519C12.8726 13.6891 12.2048 13.6891 11.4629 13.6891C10.721 13.6891 10.0532 13.6519 9.42258 13.6519C9.01451 13.094 8.68064 12.499 8.34677 11.8668C8.0129 11.2346 7.71613 10.7511 7.38226 10.1189ZM15.4694 12.3874C15.6919 11.9784 15.8774 11.6065 16.1 11.1974C16.3597 11.8296 16.6194 12.499 16.8419 13.1684C16.1742 13.3172 15.4323 13.4287 14.6903 13.5403C14.9871 13.1684 15.2468 12.7593 15.4694 12.3874ZM16.1371 8.96605C15.9145 8.55697 15.729 8.18508 15.5065 7.776C15.2839 7.36692 15.0242 7.03222 14.8387 6.69751C15.5806 6.80908 16.2484 6.92065 16.879 7.0694C16.6565 7.70162 16.3968 8.33383 16.1371 8.96605ZM11.5 3.94552C11.9823 4.46617 12.3903 4.98682 12.7984 5.54465C11.9081 5.50746 11.0177 5.50746 10.1274 5.54465C10.6097 4.94963 11.0919 4.42898 11.5 3.94552ZM6.30645 1.19355C7.04839 0.784469 8.75484 1.3423 10.4613 2.97861C10.5726 3.09018 10.6839 3.20174 10.8323 3.27612C10.1645 4.0199 9.53387 4.83806 8.90323 5.61903C7.90161 5.7306 6.8629 5.87935 5.89839 6.10249C5.86129 5.87935 5.7871 5.61903 5.75 5.43309C5.34194 3.23893 5.60161 1.60263 6.30645 1.19355ZM5.26774 13.0197C5.11935 12.9825 4.89677 12.9081 4.71129 12.8709C3.70968 12.6106 2.67097 12.0899 1.85484 11.4577C1.33548 11.0858 1.07581 10.6396 0.964516 10.1189C0.964516 9.30075 2.41129 8.25945 4.45161 7.51567C4.71129 7.40411 4.97097 7.36692 5.23065 7.25535C5.52742 8.25945 5.89839 9.18918 6.30645 10.1189C5.93548 11.0486 5.52742 11.9784 5.26774 13.0197ZM10.4242 17.3708C9.68226 18.0402 8.82903 18.5608 7.86452 18.9327C7.34516 19.193 6.78871 19.193 6.30645 18.9699C5.56452 18.5608 5.30484 16.9989 5.67581 14.8419C5.7129 14.5816 5.7871 14.3213 5.82419 14.0981C6.82581 14.3213 7.86452 14.47 8.82903 14.5072C9.38548 15.3254 10.0903 16.1807 10.7581 16.9245C10.721 17.1476 10.5726 17.2592 10.4242 17.3708ZM11.5371 16.3295C11.0548 15.8088 10.6468 15.2882 10.2016 14.7304C10.6097 14.7304 11.0177 14.7675 11.5 14.7675C11.9823 14.7675 12.4274 14.7675 12.8355 14.7304C12.4274 15.2138 12.0194 15.7345 11.5371 16.3295ZM17.3984 17.6311C17.3613 18.1517 17.1016 18.7096 16.6565 19.0443C15.9145 19.4534 14.4306 18.9327 12.7984 17.4823C12.65 17.3336 12.4274 17.1848 12.2419 16.9617C12.9097 16.2179 13.5403 15.3998 14.0968 14.5444C15.1355 14.5072 16.1371 14.2841 17.1016 14.0609C17.1387 14.2097 17.1387 14.4328 17.2129 14.5816C17.4726 15.6229 17.4726 16.6642 17.3984 17.6311ZM18.2145 12.8337C18.1032 12.8709 17.9548 12.8709 17.8065 12.9453C17.5097 11.9412 17.0645 11.0114 16.6565 10.0817C17.0645 9.18918 17.4355 8.22227 17.7323 7.25535C17.9919 7.29254 18.2145 7.40411 18.4 7.47848C20.4774 8.22227 21.9242 9.26356 21.9242 10.0817C21.9613 10.9371 20.4403 12.0899 18.2145 12.8337ZM11.5 12.1271C12.65 12.1271 13.5403 11.1974 13.5403 10.0817C13.5403 8.96605 12.6129 8.03632 11.5 8.03632C10.4242 8.03632 9.45968 8.96605 9.45968 10.0817C9.45968 11.1974 10.35 12.1271 11.5 12.1271Z" fill="#A31C45"/>
</svg>
