<svg width="27" height="27" viewBox="0 0 27 27" fill="none" xmlns="http://www.w3.org/2000/svg">
<path fill-rule="evenodd" clip-rule="evenodd" d="M0.257141 11.8454C0.257141 11.9937 0.300805 12.0916 0.325274 12.1867C0.484743 12.8054 0.827516 13.3363 1.2342 13.8206C1.81344 14.5108 2.52282 15.0664 3.2495 15.5889C3.87978 16.042 4.52293 16.485 5.15574 16.9347C5.26438 17.0119 5.3671 17.1007 5.48502 17.1954C5.38356 17.2503 5.29918 17.2986 5.21143 17.3431C4.37633 17.7666 3.57287 18.2415 2.83227 18.8167C2.38592 19.1635 1.95434 19.532 1.64954 20.0135C1.15911 20.7881 0.985508 21.6133 1.35106 22.4944C1.4578 22.7517 1.62064 22.974 1.85035 23.1384C1.92481 23.1915 2.00834 23.2443 2.09546 23.2649C2.31863 23.3175 2.54602 23.3518 2.77194 23.3934L3.41171 23.393C4.1192 23.3299 4.76319 23.0875 5.34516 22.6859C6.25473 22.0582 6.8675 21.2165 7.13096 20.1363C7.32249 19.3512 7.3303 18.5652 7.10459 17.7837C7.08299 17.7113 7.05807 17.6399 7.02992 17.5698C7.0025 17.4996 6.97023 17.4312 6.93226 17.3437L8.38266 16.5097L8.40439 16.5282C8.37802 16.6145 8.34997 16.7006 8.32613 16.7877C8.1538 17.4171 8.03926 18.0575 8.08039 18.7108C8.12427 19.4069 8.31854 20.0585 8.72607 20.64C9.05555 21.1104 9.84066 21.1279 10.1908 20.6558C10.3151 20.4881 10.4355 20.3129 10.526 20.1258C10.7625 19.6374 10.9814 19.1405 11.2073 18.6469L11.2468 18.5566C11.2305 18.7903 11.2115 18.9956 11.2029 19.201C11.1894 19.5218 11.2082 19.8408 11.3179 20.146C11.4117 20.4071 11.5714 20.6023 11.8705 20.6366C12.0751 20.6601 12.2382 20.5664 12.3886 20.4476C12.6216 20.2635 12.8147 20.0339 12.9562 19.7729C13.3572 19.0365 13.769 18.3045 14.1324 17.5496C14.5256 16.733 14.8694 15.8927 15.2345 15.0622L15.2949 14.915C15.3811 15.2539 15.4413 15.586 15.552 15.9003C15.6807 16.265 15.8399 16.621 16.0133 16.9672C16.0954 17.1307 16.0859 17.2368 15.9722 17.3739C15.4963 17.9476 15.0287 18.5283 14.5606 19.1084C14.457 19.2364 14.3539 19.3668 14.2676 19.5067C14.2153 19.595 14.1809 19.6927 14.1664 19.7944C14.1518 19.8879 14.1741 19.9835 14.2285 20.061C14.2829 20.1385 14.3652 20.192 14.4581 20.2101C14.6456 20.2505 14.8379 20.2642 15.0293 20.2508C15.6826 20.2027 16.2757 19.9735 16.8001 19.5849C17.4796 19.0816 17.6977 18.3948 17.5331 17.5808C17.4886 17.3599 17.4099 17.1452 17.3334 16.9324C17.299 16.8364 17.2967 16.7691 17.3593 16.6797C17.9025 15.9041 18.3665 15.0812 18.7981 14.2393C18.8152 14.2062 18.8327 14.1731 18.8627 14.1377C19.0025 14.8654 19.213 15.5668 19.5902 16.2032C19.3978 16.3886 19.2073 16.5567 19.035 16.7419C18.6555 17.1499 18.3265 17.5928 18.1548 18.133C18.0809 18.3659 18.0242 18.6026 18.0571 18.8513C18.1081 19.2375 18.4246 19.4885 18.8045 19.4006C19.6174 19.2124 20.3192 18.8293 20.832 18.1507C21.1771 17.6939 21.2085 17.1842 21.064 16.6504C21.0244 16.5052 20.9773 16.3624 20.9267 16.196C21.1273 16.1338 21.3228 16.0591 21.5251 16.0129C22.5754 15.7733 23.6143 15.815 24.6263 16.1943C25.2172 16.4158 25.6945 16.7864 25.9776 17.3694C26.3233 18.0822 26.1322 18.7585 25.4604 19.209C25.3977 19.251 25.326 19.2841 25.2741 19.3366C25.2575 19.3559 25.2451 19.3784 25.2376 19.4028C25.2302 19.4271 25.2279 19.4527 25.2309 19.478C25.2353 19.5039 25.3039 19.5364 25.3433 19.536C25.5642 19.5343 25.7432 19.4185 25.9152 19.2995C26.3459 19.0015 26.6602 18.6005 26.7279 18.0725L26.7412 18.0328L26.7249 17.689C26.7184 17.6692 26.7298 17.6496 26.7283 17.6346C26.6368 16.8657 26.2261 16.2694 25.6287 15.802C24.9368 15.2609 24.1199 15.0382 23.2559 15.0029C22.5551 14.9728 21.8553 15.0805 21.1961 15.32C21.0069 15.3885 20.8193 15.4697 20.6291 15.5463C20.6035 15.5001 20.5761 15.4558 20.5535 15.41C20.3582 15.0101 20.1215 14.6279 20.0692 14.1693C20.0321 13.8436 19.9865 13.5184 20.064 13.1962C20.1384 12.8864 20.2355 12.5818 20.3268 12.2761C20.3738 12.1188 20.3407 12.0306 20.1905 11.9597C20.1382 11.9336 20.0823 11.9153 20.0247 11.9053C19.6556 11.8517 19.2915 11.8823 18.934 11.9863C18.8074 12.0232 18.7154 12.0941 18.6874 12.2342C18.6714 12.3145 18.6387 12.3915 18.6159 12.4708C18.5224 12.8005 18.4562 13.1366 18.3052 13.4506C17.9267 14.2385 17.4947 14.9966 17.0526 15.7492C17.0047 15.8304 16.9543 15.9102 16.894 16.0087C16.7387 15.6838 16.5732 15.3923 16.523 15.0506C16.4662 14.6642 16.4215 14.2784 16.5177 13.8949C16.5892 13.6088 16.6826 13.3281 16.7687 13.0459C16.8094 12.9117 16.7906 12.8412 16.6691 12.7706C16.6077 12.7349 16.5384 12.7033 16.4692 12.693C16.0907 12.6353 15.7039 12.6669 15.3398 12.7853C15.2253 12.8225 15.1651 12.8965 15.1301 13.0146C15.0272 13.3631 14.9394 13.72 14.795 14.0514C14.2098 15.393 13.6078 16.7276 13.0064 18.0619C12.8809 18.3406 12.7339 18.6095 12.5923 18.8808C12.5565 18.9496 12.5042 19.0101 12.4595 19.0747C12.4236 19.0323 12.4097 19.0031 12.4099 18.974C12.4109 18.8025 12.3905 18.626 12.4232 18.4602C12.5236 17.9588 12.6345 17.4595 12.756 16.9628C12.8552 16.5523 12.9706 16.1456 13.0805 15.7378C13.1174 15.6014 13.118 15.4737 13.0199 15.359C12.8552 15.1668 12.5109 15.1246 12.3067 15.2727L12.2165 15.3238L12.234 15.1782C12.277 14.8662 12.2856 14.5553 12.2 14.248C12.0933 13.8649 11.8199 13.6445 11.4225 13.6567C11.2373 13.6624 11.0428 13.6941 10.8713 13.7616C10.1501 14.0442 9.59555 14.5448 9.12348 15.147C9.07971 15.2029 9.02548 15.2498 8.9638 15.285C8.35355 15.6233 7.74141 15.9574 7.12948 16.2928L6.44837 16.666C6.2657 16.4917 6.09969 16.311 5.91132 16.1576C5.33609 15.6885 4.75159 15.231 4.17235 14.7671C3.65893 14.356 3.16154 13.9278 2.78101 13.3834C2.49793 12.9784 2.31547 12.5352 2.29796 12.0344C2.27581 11.3963 2.4568 10.8133 2.78164 10.2705C3.19719 9.57614 3.76398 9.01884 4.38709 8.51407C5.04627 7.9804 5.75923 7.5273 6.49815 7.11366C7.53195 6.53505 8.59529 6.0229 9.73541 5.68477C10.9044 5.33798 12.0905 5.13949 13.314 5.27787C13.7949 5.33229 14.2619 5.4424 14.6907 5.67759C15.0192 5.85752 15.2885 6.09314 15.4138 6.46144C15.5375 6.82383 15.5337 7.19107 15.448 7.55916C15.274 8.30461 14.8658 8.91907 14.3522 9.46814C13.5097 10.3682 12.482 10.981 11.325 11.3858C10.6598 11.6188 9.96766 11.7665 9.26523 11.8252C8.68958 11.8735 8.12595 11.8224 7.58089 11.6222C7.21998 11.4896 6.90568 11.2866 6.65298 10.9922C6.60784 10.9394 6.55004 10.8823 6.46588 10.9316C6.3834 10.9801 6.36884 11.0586 6.39648 11.1381C6.44267 11.2702 6.48528 11.4077 6.55721 11.5258C6.73799 11.8222 7.00166 12.0371 7.29191 12.2215C7.84941 12.5761 8.47252 12.6953 9.11862 12.7229C10.0991 12.7653 11.0557 12.6189 11.9988 12.3559C13.3452 11.9804 14.5159 11.3172 15.4548 10.271C16.2365 9.3998 16.7949 8.41662 16.9145 7.22946C16.9729 6.65002 16.9107 6.08238 16.6394 5.55377C16.3451 4.98108 15.8773 4.5552 15.3179 4.26178C14.5032 3.83463 13.624 3.58594 12.7166 3.58594H11.8074C10.7085 3.58594 9.64597 3.90087 8.61322 4.27655C7.83148 4.5611 7.06494 4.89691 6.32075 5.26859C4.70012 6.07837 3.19086 7.05481 1.95118 8.39742C1.33356 9.06631 0.810641 9.80437 0.509844 10.6734C0.419058 10.9329 0.34085 11.1966 0.275493 11.4636M6.14778 19.0601C6.07754 20.0007 5.65124 20.7632 4.95451 21.3808C4.56259 21.728 4.11308 21.9753 3.58953 22.0622C3.39969 22.0936 3.20541 22.1012 3.02127 22.0225C2.75865 21.9103 2.6998 21.6772 2.69473 21.4289C2.68693 21.0332 2.82552 20.6755 3.01557 20.335C3.26363 19.8912 3.62729 19.5529 4.01563 19.2369C4.62734 18.7388 5.29095 18.3174 5.97059 17.9196L6.02185 17.8985C6.1269 18.2866 6.17689 18.6699 6.14778 19.0601ZM11.4545 14.9723C11.405 15.2727 11.343 15.5733 11.2552 15.8644C10.9519 16.872 10.5623 17.8485 10.141 18.8118C10.0632 18.9901 9.94993 19.1527 9.85142 19.3217C9.83466 19.3476 9.8146 19.3713 9.79173 19.3921C9.6698 19.5126 9.55421 19.5062 9.49262 19.3487C9.4209 19.1656 9.37681 18.9696 9.33884 18.7758C9.31332 18.6456 9.31944 18.5089 9.31142 18.3756C9.31965 17.4277 9.60884 16.5662 10.0995 15.7642C10.3018 15.4335 10.522 15.1183 10.8584 14.9091C10.9631 14.844 11.0763 14.7939 11.1949 14.7601C11.3742 14.7097 11.4843 14.7926 11.4545 14.9723ZM15.0751 19.5851L16.3764 18.0657C16.4306 18.63 15.4714 19.7564 15.0751 19.5851ZM19.2312 18.5627C19.1392 18.6154 19.039 18.6534 18.9447 18.7021C18.8585 18.7469 18.83 18.7017 18.8274 18.6275C18.8262 18.5761 18.8328 18.5248 18.8471 18.4754C19.0228 17.8556 19.3461 17.3266 19.8273 16.8963L19.861 16.879C20.0899 17.5192 19.8254 18.2223 19.2312 18.5627Z" fill="#A31C45"/>
</svg>
