<svg width="23" height="24" viewBox="0 0 23 24" fill="none" xmlns="http://www.w3.org/2000/svg">
<path d="M18.36 11.5358C16.1588 9.3574 12.5943 9.36978 10.4057 11.5482C8.20446 13.7267 8.20446 17.2543 10.4057 19.4203C12.2692 21.2522 15.1457 21.574 17.3719 20.2001L21.2616 24L23 22.2795L19.1354 18.4301C20.5487 16.2393 20.2235 13.3677 18.36 11.5358ZM16.5965 17.6627C15.3709 18.8757 13.3948 18.8633 12.1691 17.6627C10.956 16.4497 10.956 14.4941 12.1816 13.2811C13.3948 12.0805 15.3709 12.0805 16.5965 13.2811C17.8097 14.4941 17.8097 16.4497 16.5965 17.6627ZM8.62969 21.1656C7.81675 20.3486 7.1789 19.3708 6.77868 18.294C2.83904 17.638 0 15.7937 0 13.6153V17.3285C0 20.064 4.47743 22.2795 10.0054 22.2795C9.50517 21.9577 9.04241 21.5864 8.62969 21.1656ZM0 7.42651V11.1398C0 13.2192 2.58891 15.0015 6.2534 15.7194C6.2534 15.6328 6.2534 15.5585 6.2534 15.4719C6.2534 14.3208 6.50353 13.1821 6.97879 12.1423C2.92659 11.5111 0 9.64208 0 7.42651ZM10.0054 0C4.47743 0 0 2.21558 0 4.95101C0 7.42651 3.75204 9.50593 8.56716 9.90201H8.62969C10.1305 8.34245 12.2066 7.42651 14.3828 7.42651C15.5209 7.42651 16.6465 7.66168 17.6846 8.11965C18.9728 7.53791 19.8483 6.33729 20.0109 4.95101C20.0109 2.21558 15.5334 0 10.0054 0Z" fill="#A31C45"/>
</svg>
