<svg width="21" height="21" viewBox="0 0 21 21" fill="none" xmlns="http://www.w3.org/2000/svg">
<g clip-path="url(#clip0_6_301)">
<path d="M17.291 0.206772L17.1432 0.977057C16.9147 2.43686 16.9975 2.8545 17.6239 3.39626L18.2287 3.89666L17.6023 6.69017C17.228 8.35683 16.7689 9.75358 16.4774 10.2126C16.2272 10.6086 15.9356 11.1917 15.8726 11.5049C15.7682 11.8793 15.4135 12.2555 14.8718 12.5885C14.3931 12.8603 13.4534 13.5892 12.7875 14.1744C12.2556 14.6531 11.8891 14.9466 11.6902 15.0727L11.0401 15.5869C10.8312 15.9218 10.713 16.1917 10.6677 16.3966C10.6224 16.6073 10.648 16.7472 10.715 16.8497C10.78 16.9482 10.8923 17.0171 11.046 17.0605C11.2279 17.1031 11.4151 17.1184 11.6015 17.1058C12.0232 17.077 12.4406 17.003 12.8466 16.8851C12.9845 16.8477 13.0928 16.8122 13.1874 16.7807C13.3332 16.6014 13.6701 16.2626 14.267 15.6736C15.8509 14.1113 16.4557 13.2563 15.8312 13.4868C15.6007 13.5695 15.7051 13.3607 16.1011 12.9431C16.9364 12.1294 17.4151 10.9001 18.4159 7.04478C19.2078 4.00107 19.2078 3.95773 19.791 3.95773C20.0648 3.95773 20.839 4.00501 20.839 4.00501V0.206772H19.0621H17.291ZM10.2737 6.71775C9.69846 6.71381 8.46128 7.59048 4.7576 10.6145C4.59803 10.9947 4.58424 11.2567 4.65713 11.4261C4.70441 11.5424 4.79109 11.6231 4.91126 11.6823C5.02946 11.7414 5.18313 11.7768 5.35255 11.7906C5.68943 11.8202 6.08738 11.767 6.40849 11.7039L6.6252 11.6547C6.69938 11.5552 6.79677 11.4754 6.90888 11.4222C7.13741 11.2961 8.09682 10.4214 9.05623 9.48369C10.7446 7.77369 11.1405 7.00144 10.453 6.75124C10.3966 6.7288 10.3344 6.71743 10.2737 6.71775ZM14.5999 7.90569C14.0936 7.91948 13.1815 8.50655 11.6192 9.75358C10.8352 10.3899 10.3387 10.7327 10.0728 10.8036L9.04047 11.6192C8.65237 12.3284 8.59524 12.7677 8.69768 13.0101C8.72332 13.0698 8.76054 13.1239 8.80721 13.1692C8.85387 13.2146 8.90904 13.2502 8.96954 13.274C9.12005 13.3335 9.28054 13.3636 9.44235 13.3627C9.82903 13.3586 10.2134 13.3022 10.585 13.1952C10.7786 13.1433 10.9699 13.0828 11.1583 13.014L11.2154 12.9904L11.3198 12.9352C11.5168 12.6811 11.9699 12.2023 12.5373 11.6507C14.33 9.92104 15.2461 8.69173 15.0589 8.23271C14.9742 8.0101 14.8284 7.89781 14.5999 7.90569ZM9.82454 10.0333C9.67876 10.0491 9.35173 10.3013 8.76269 10.8174C7.91163 11.57 6.98375 12.0034 6.66263 11.8103C6.588 11.8272 6.51313 11.8429 6.43804 11.8576C6.11102 11.9226 5.70322 11.9758 5.33876 11.9462C5.16704 11.9358 4.99873 11.8938 4.84231 11.8221C4.69478 11.7547 4.57705 11.6355 4.51134 11.4872C4.43845 11.3099 4.43846 11.0893 4.5212 10.8076L3.24067 11.8596L0.342742 14.2571V18.144L9.83833 10.6637C9.83649 10.5818 9.84712 10.5001 9.86985 10.4214C9.94274 10.1574 9.9388 10.0235 9.82454 10.0353V10.0333ZM13.9104 11.2922C13.7666 11.2922 13.5262 11.4951 13.1421 11.9029C12.62 12.4604 11.7985 13.0002 11.3631 13.1105L11.2962 13.146C11.2247 13.1755 11.1524 13.2031 11.0795 13.2287C10.9613 13.2681 10.8076 13.3154 10.6303 13.3627C10.2757 13.4592 9.83439 13.5479 9.44038 13.538C9.25463 13.5378 9.07067 13.5017 8.89862 13.4316C8.73646 13.3648 8.60652 13.2377 8.53614 13.077C8.42188 12.8032 8.46719 12.419 8.71738 11.8733L0.340771 18.471V20.8449H4.02081L11.8261 14.7141C12.029 14.4896 12.3344 14.1822 12.7461 13.7981C13.8493 12.7756 14.0995 12.423 14.0995 11.9009C14.0995 11.4951 14.0542 11.2902 13.9104 11.2902V11.2922ZM15.7682 15.1338L15.1003 15.7996C14.726 16.1542 14.0582 16.5916 13.6011 16.7787L13.5105 16.8181L13.5046 16.828L13.4849 16.8477C13.4671 16.8615 13.4593 16.8635 13.4455 16.8694C13.263 16.9384 13.0777 16.9995 12.8899 17.0526C12.4725 17.1741 12.0432 17.25 11.6094 17.2791C11.4043 17.2923 11.1984 17.2743 10.9987 17.2259C10.8254 17.1878 10.6723 17.0867 10.5692 16.9423C10.4747 16.7965 10.4471 16.6014 10.5003 16.3611C10.5426 16.19 10.6054 16.0246 10.6874 15.8686L4.3892 20.8449H12.7658L13.7666 19.6983C15.1417 18.0947 15.7682 16.9482 15.7682 15.9671V15.1338Z" fill="#9E274B"/>
<path d="M17.291 0.206772L17.1432 0.977057C16.9147 2.43686 16.9975 2.8545 17.6239 3.39626L18.2287 3.89666L17.6023 6.69017C17.228 8.35683 16.7689 9.75358 16.4774 10.2126C16.2272 10.6086 15.9356 11.1917 15.8726 11.5049C15.7682 11.8793 15.4135 12.2555 14.8718 12.5885C14.3931 12.8603 13.4534 13.5892 12.7875 14.1744C12.2556 14.6531 11.8891 14.9466 11.6902 15.0727L11.0401 15.5869C10.8312 15.9218 10.713 16.1917 10.6677 16.3966C10.6224 16.6073 10.648 16.7472 10.715 16.8497C10.78 16.9482 10.8923 17.0171 11.046 17.0605C11.2279 17.1031 11.4151 17.1184 11.6015 17.1058C12.0232 17.077 12.4406 17.003 12.8466 16.8851C12.9845 16.8477 13.0928 16.8122 13.1874 16.7807C13.3332 16.6014 13.6701 16.2626 14.267 15.6736C15.8509 14.1113 16.4557 13.2563 15.8312 13.4868C15.6007 13.5695 15.7051 13.3607 16.1011 12.9431C16.9364 12.1294 17.4151 10.9001 18.4159 7.04478C19.2078 4.00107 19.2078 3.95773 19.791 3.95773C20.0648 3.95773 20.839 4.00501 20.839 4.00501V0.206772H19.0621H17.291ZM10.2737 6.71775C9.69846 6.71381 8.46128 7.59048 4.7576 10.6145C4.59803 10.9947 4.58424 11.2567 4.65713 11.4261C4.70441 11.5424 4.79109 11.6231 4.91126 11.6823C5.02946 11.7414 5.18313 11.7768 5.35255 11.7906C5.68943 11.8202 6.08738 11.767 6.40849 11.7039L6.6252 11.6547C6.69938 11.5552 6.79677 11.4754 6.90888 11.4222C7.13741 11.2961 8.09682 10.4214 9.05623 9.48369C10.7446 7.77369 11.1405 7.00144 10.453 6.75124C10.3966 6.7288 10.3344 6.71743 10.2737 6.71775ZM14.5999 7.90569C14.0936 7.91948 13.1815 8.50655 11.6192 9.75358C10.8352 10.3899 10.3387 10.7327 10.0728 10.8036L9.04047 11.6192C8.65237 12.3284 8.59524 12.7677 8.69768 13.0101C8.72332 13.0698 8.76054 13.1239 8.80721 13.1692C8.85387 13.2146 8.90904 13.2502 8.96954 13.274C9.12005 13.3335 9.28054 13.3636 9.44235 13.3627C9.82903 13.3586 10.2134 13.3022 10.585 13.1952C10.7786 13.1433 10.9699 13.0828 11.1583 13.014L11.2154 12.9904L11.3198 12.9352C11.5168 12.6811 11.9699 12.2023 12.5373 11.6507C14.33 9.92104 15.2461 8.69173 15.0589 8.23271C14.9742 8.0101 14.8284 7.89781 14.5999 7.90569ZM9.82454 10.0333C9.67876 10.0491 9.35173 10.3013 8.76269 10.8174C7.91163 11.57 6.98375 12.0034 6.66263 11.8103C6.588 11.8272 6.51313 11.8429 6.43804 11.8576C6.11102 11.9226 5.70322 11.9758 5.33876 11.9462C5.16704 11.9358 4.99873 11.8938 4.84231 11.8221C4.69478 11.7547 4.57705 11.6355 4.51134 11.4872C4.43845 11.3099 4.43846 11.0893 4.5212 10.8076L3.24067 11.8596L0.342742 14.2571V18.144L9.83833 10.6637C9.83649 10.5818 9.84712 10.5001 9.86985 10.4214C9.94274 10.1574 9.9388 10.0235 9.82454 10.0353V10.0333ZM13.9104 11.2922C13.7666 11.2922 13.5262 11.4951 13.1421 11.9029C12.62 12.4604 11.7985 13.0002 11.3631 13.1105L11.2962 13.146C11.2247 13.1755 11.1524 13.2031 11.0795 13.2287C10.9613 13.2681 10.8076 13.3154 10.6303 13.3627C10.2757 13.4592 9.83439 13.5479 9.44038 13.538C9.25463 13.5378 9.07067 13.5017 8.89862 13.4316C8.73646 13.3648 8.60652 13.2377 8.53614 13.077C8.42188 12.8032 8.46719 12.419 8.71738 11.8733L0.340771 18.471V20.8449H4.02081L11.8261 14.7141C12.029 14.4896 12.3344 14.1822 12.7461 13.7981C13.8493 12.7756 14.0995 12.423 14.0995 11.9009C14.0995 11.4951 14.0542 11.2902 13.9104 11.2902V11.2922ZM15.7682 15.1338L15.1003 15.7996C14.726 16.1542 14.0582 16.5916 13.6011 16.7787L13.5105 16.8181L13.5046 16.828L13.4849 16.8477C13.4671 16.8615 13.4593 16.8635 13.4455 16.8694C13.263 16.9384 13.0777 16.9995 12.8899 17.0526C12.4725 17.1741 12.0432 17.25 11.6094 17.2791C11.4043 17.2923 11.1984 17.2743 10.9987 17.2259C10.8254 17.1878 10.6723 17.0867 10.5692 16.9423C10.4747 16.7965 10.4471 16.6014 10.5003 16.3611C10.5426 16.19 10.6054 16.0246 10.6874 15.8686L4.3892 20.8449H12.7658L13.7666 19.6983C15.1417 18.0947 15.7682 16.9482 15.7682 15.9671V15.1338Z" fill="#9E274B"/>
<path d="M17.291 0.206772L17.1432 0.977057C16.9147 2.43686 16.9975 2.8545 17.6239 3.39626L18.2287 3.89666L17.6023 6.69017C17.2279 8.35683 16.7689 9.75358 16.4774 10.2126C16.2272 10.6086 15.9356 11.1917 15.8726 11.5049C15.7682 11.8793 15.4135 12.2555 14.8718 12.5885C14.3931 12.8603 13.4534 13.5892 12.7875 14.1744C12.2556 14.6531 11.8891 14.9466 11.6902 15.0727L11.0401 15.5869C10.8312 15.9218 10.713 16.1917 10.6677 16.3966C10.6224 16.6073 10.648 16.7472 10.715 16.8497C10.78 16.9482 10.8923 17.0171 11.046 17.0605C11.2279 17.1031 11.4151 17.1184 11.6015 17.1058C12.0232 17.077 12.4406 17.003 12.8466 16.8851C12.9845 16.8477 13.0928 16.8122 13.1874 16.7807C13.3332 16.6014 13.6701 16.2626 14.267 15.6736C15.8509 14.1113 16.4557 13.2563 15.8312 13.4868C15.6007 13.5695 15.7051 13.3607 16.1011 12.9431C16.9364 12.1294 17.4151 10.9001 18.4159 7.04478C19.2078 4.00107 19.2078 3.95773 19.791 3.95773C20.0648 3.95773 20.839 4.00501 20.839 4.00501V0.206772H19.0621H17.291ZM10.2737 6.71775C9.69846 6.71381 8.46128 7.59048 4.7576 10.6145C4.59803 10.9947 4.58424 11.2567 4.65713 11.4261C4.70441 11.5424 4.79109 11.6231 4.91126 11.6822C5.02947 11.7414 5.18313 11.7768 5.35255 11.7906C5.68943 11.8202 6.08738 11.767 6.40849 11.7039L6.6252 11.6547C6.69938 11.5552 6.79677 11.4754 6.90888 11.4222C7.13741 11.2961 8.09682 10.4214 9.05623 9.48369C10.7446 7.77369 11.1405 7.00144 10.453 6.75124C10.3966 6.7288 10.3344 6.71743 10.2737 6.71775ZM14.5999 7.90569C14.0936 7.91948 13.1815 8.50655 11.6192 9.75358C10.8352 10.3899 10.3387 10.7327 10.0728 10.8036L9.04046 11.6192C8.65237 12.3284 8.59524 12.7677 8.69768 13.0101C8.72332 13.0698 8.76054 13.1239 8.8072 13.1692C8.85387 13.2146 8.90904 13.2502 8.96954 13.274C9.12005 13.3335 9.28054 13.3636 9.44235 13.3627C9.82903 13.3586 10.2134 13.3022 10.585 13.1952C10.7786 13.1433 10.9699 13.0828 11.1583 13.014L11.2154 12.9904L11.3198 12.9352C11.5168 12.6811 11.9699 12.2023 12.5373 11.6507C14.33 9.92104 15.2461 8.69173 15.0589 8.23271C14.9742 8.0101 14.8284 7.89781 14.5999 7.90569Z" fill="#710525"/>
<path d="M17.291 0.206772L17.1432 0.977057C16.9147 2.43686 16.9975 2.8545 17.6239 3.39626L18.2287 3.89666L17.6023 6.69017C17.2279 8.35683 16.7689 9.75358 16.4774 10.2126C16.2272 10.6086 15.9356 11.1917 15.8726 11.5049C15.7682 11.8793 15.4135 12.2555 14.8718 12.5885C14.3931 12.8603 13.4534 13.5892 12.7875 14.1744C12.2556 14.6531 11.8891 14.9466 11.6902 15.0727L11.0401 15.5869C10.8312 15.9218 10.713 16.1917 10.6677 16.3966C10.6224 16.6073 10.648 16.7472 10.715 16.8497C10.78 16.9482 10.8923 17.0171 11.046 17.0605C11.2279 17.1031 11.4151 17.1184 11.6015 17.1058C12.0232 17.077 12.4406 17.003 12.8466 16.8851C12.9845 16.8477 13.0928 16.8122 13.1874 16.7807C13.3332 16.6014 13.6701 16.2626 14.267 15.6736C15.8509 14.1113 16.4557 13.2563 15.8312 13.4868C15.6007 13.5695 15.7051 13.3607 16.1011 12.9431C16.9364 12.1294 17.4151 10.9001 18.4159 7.04478C19.2078 4.00107 19.2078 3.95773 19.791 3.95773C20.0648 3.95773 20.839 4.00501 20.839 4.00501V0.206772H19.0621H17.291ZM10.2737 6.71775C9.69846 6.71381 8.46128 7.59048 4.7576 10.6145C4.59803 10.9947 4.58424 11.2567 4.65713 11.4261C4.70441 11.5424 4.79109 11.6231 4.91126 11.6822C5.02947 11.7414 5.18313 11.7768 5.35255 11.7906C5.68943 11.8202 6.08738 11.767 6.40849 11.7039L6.6252 11.6547C6.69938 11.5552 6.79677 11.4754 6.90888 11.4222C7.13741 11.2961 8.09682 10.4214 9.05623 9.48369C10.7446 7.77369 11.1405 7.00144 10.453 6.75124C10.3966 6.7288 10.3344 6.71743 10.2737 6.71775ZM14.5999 7.90569C14.0936 7.91948 13.1815 8.50655 11.6192 9.75358C10.8352 10.3899 10.3387 10.7327 10.0728 10.8036L9.04046 11.6192C8.65237 12.3284 8.59524 12.7677 8.69768 13.0101C8.72332 13.0698 8.76054 13.1239 8.8072 13.1692C8.85387 13.2146 8.90904 13.2502 8.96954 13.274C9.12005 13.3335 9.28054 13.3636 9.44235 13.3627C9.82903 13.3586 10.2134 13.3022 10.585 13.1952C10.7786 13.1433 10.9699 13.0828 11.1583 13.014L11.2154 12.9904L11.3198 12.9352C11.5168 12.6811 11.9699 12.2023 12.5373 11.6507C14.33 9.92104 15.2461 8.69173 15.0589 8.23271C14.9742 8.0101 14.8284 7.89781 14.5999 7.90569Z" fill="#710525"/>
</g>
<defs>
<clipPath id="clip0_6_301">
<rect width="21" height="21" fill="white"/>
</clipPath>
</defs>
</svg>
