<svg width="24" height="19" viewBox="0 0 24 19" fill="none" xmlns="http://www.w3.org/2000/svg">
<path fill-rule="evenodd" clip-rule="evenodd" d="M6.00002 6.33333C6.79988 2.11127 8.80013 0 12 0C16.8 0 17.4 4.75 19.8 5.54167C21.4001 6.0696 22.8 5.27794 24 3.16667C23.2001 7.38873 21.1998 9.5 18 9.5C13.2 9.5 12.6 4.75 10.2 3.95833C8.59989 3.4304 7.2 4.22206 6.00002 6.33333ZM0 15.8333C0.799869 11.6113 2.80012 9.5 6.00002 9.5C10.8 9.5 11.4 14.25 13.8 15.0417C15.4001 15.5696 16.8 14.7779 18 12.6667C17.2001 16.8887 15.1999 19 12 19C7.2 19 6.60001 14.25 4.20001 13.4583C2.59987 12.9304 1.2 13.7221 0 15.8333Z" fill="#A31C45"/>
</svg>
