<svg width="21" height="21" viewBox="0 0 21 21" fill="none" xmlns="http://www.w3.org/2000/svg">
<g clip-path="url(#clip0_6_310)">
<mask id="mask0_6_310" style="mask-type:luminance" maskUnits="userSpaceOnUse" x="0" y="0" width="21" height="21">
<path d="M21 0H0V21H21V0Z" fill="white"/>
</mask>
<g mask="url(#mask0_6_310)">
<path d="M18.9166 0H2.27814C1.16312 0 0.258911 0.91834 0.258911 2.05078V18.9492C0.258911 20.0817 1.16312 21 2.27814 21H18.9166C20.0316 21 20.9358 20.0817 20.9358 18.9492V2.05078C20.9358 0.91834 20.0316 0 18.9166 0ZM12.2531 11.6484H9.6685V19.1543H7.60889V11.6484H5.02428V9.9668H12.2531V11.6484ZM18.9166 17.8049C18.755 18.174 18.4764 18.4488 18.1493 18.6662C17.8262 18.8672 17.4627 19.023 17.0185 19.1174C16.5743 19.2117 16.13 19.2568 15.6454 19.2568C15.1608 19.2568 14.6762 19.2158 14.232 19.1297C13.7877 19.0436 13.3879 18.9164 13.0608 18.7441V16.7734C13.0354 16.7528 13.0091 16.7327 12.9841 16.7114L13.0608 16.6934V16.7734C13.4041 17.0502 13.7821 17.2635 14.1956 17.4087C14.5995 17.5645 15.0437 17.6425 15.4879 17.6425C15.7706 17.6425 15.9847 17.6179 16.1745 17.5727C16.3724 17.5235 16.5299 17.4579 16.6591 17.3759C16.7883 17.2938 16.8845 17.1954 16.9459 17.0805C17.0072 16.9657 17.0387 16.8427 17.0387 16.7114C17.0387 16.5227 16.9862 16.3587 16.8853 16.2192C16.7924 16.0798 16.6551 15.9485 16.4814 15.8296C16.3199 15.7106 16.118 15.5958 15.8757 15.485C15.6334 15.3743 15.387 15.2595 15.1084 15.1446C14.4218 14.8165 13.8807 14.4884 13.5334 14.0372C13.182 13.627 13.0084 13.0938 13.0084 12.4786C13.0084 11.9864 13.1012 11.5927 13.291 11.2481C13.493 10.879 13.7312 10.6083 14.0584 10.3868C14.3814 10.1612 14.7449 9.99715 15.1891 9.89461C15.6334 9.79207 16.0776 9.73875 16.5622 9.73875C17.0468 9.73875 17.4507 9.76746 17.8141 9.82488C18.1776 9.8823 18.5168 9.97254 18.8237 10.0915V12.0192C18.6824 11.9126 18.5168 11.8182 18.3391 11.7362C18.1493 11.6542 17.9635 11.5886 17.7737 11.5352C17.5839 11.4819 17.3941 11.4421 17.2084 11.4163C17.0307 11.3904 16.853 11.3777 16.6834 11.3777C16.437 11.3777 16.227 11.3982 16.0372 11.4434C15.8434 11.4885 15.6818 11.55 15.5526 11.632C15.4234 11.7141 15.3228 11.8084 15.2497 11.9232C15.1766 12.0381 15.1406 12.1652 15.1406 12.3047C15.1406 12.4564 15.181 12.5918 15.2618 12.7148C15.3425 12.8338 15.4556 12.9486 15.605 13.0594C15.7383 13.166 15.92 13.2727 16.13 13.3793C16.3724 13.4859 16.5904 13.5926 16.857 13.7033C17.2204 13.8592 17.5435 14.0314 17.8262 14.1955C18.1089 14.3596 18.3472 14.5523 18.5531 14.7697C18.7712 14.9748 18.9287 15.2209 19.0377 15.508C19.1468 15.7951 19.2033 16.1191 19.2033 16.4924C19.2033 17.0256 19.0781 17.4357 18.9166 17.8049Z" fill="#A31C45"/>
</g>
</g>
<defs>
<clipPath id="clip0_6_310">
<rect width="21" height="21" fill="white"/>
</clipPath>
</defs>
</svg>
